<svg width="470" height="160" viewBox="0 0 470 160" fill="none" xmlns="http://www.w3.org/2000/svg">
<path d="M90.8389 34.5055C94.8126 34.5055 98.034 31.2924 98.034 27.3289C98.034 23.3654 94.8126 20.1523 90.8389 20.1523C86.8651 20.1523 83.6438 23.3654 83.6438 27.3289C83.6438 31.2924 86.8651 34.5055 90.8389 34.5055Z" fill="#D8E1F4"/>
<path d="M98.9268 135.877C102.9 135.877 106.122 132.663 106.122 128.7C106.122 124.736 102.9 121.523 98.9268 121.523C94.953 121.523 91.7317 124.736 91.7317 128.7C91.7317 132.663 94.953 135.877 98.9268 135.877Z" fill="#D8E1F4"/>
<path d="M92.8926 52.4458C96.2277 52.4458 98.9313 49.7491 98.9313 46.4226C98.9313 43.0961 96.2277 40.3994 92.8926 40.3994C89.5575 40.3994 86.8538 43.0961 86.8538 46.4226C86.8538 49.7491 89.5575 52.4458 92.8926 52.4458Z" fill="#D8E1F4"/>
<path d="M108.951 54.7514C112.287 54.7514 114.99 52.0548 114.99 48.7283C114.99 45.4018 112.287 42.7051 108.951 42.7051C105.616 42.7051 102.913 45.4018 102.913 48.7283C102.913 52.0548 105.616 54.7514 108.951 54.7514Z" fill="#D8E1F4"/>
<path d="M90.8347 67.6985C93.6731 67.6985 95.9741 65.4035 95.9741 62.5724C95.9741 59.7413 93.6731 57.4463 90.8347 57.4463C87.9963 57.4463 85.6954 59.7413 85.6954 62.5724C85.6954 65.4035 87.9963 67.6985 90.8347 67.6985Z" fill="#D8E1F4"/>
<path d="M106.894 69.8772C109.732 69.8772 112.033 67.5822 112.033 64.7511C112.033 61.92 109.732 59.625 106.894 59.625C104.055 59.625 101.754 61.92 101.754 64.7511C101.754 67.5822 104.055 69.8772 106.894 69.8772Z" fill="#D8E1F4"/>
<path d="M119.743 74.8733C122.581 74.8733 124.882 72.5783 124.882 69.7472C124.882 66.9161 122.581 64.6211 119.743 64.6211C116.904 64.6211 114.603 66.9161 114.603 69.7472C114.603 72.5783 116.904 74.8733 119.743 74.8733Z" fill="#D8E1F4"/>
<path d="M102.148 82.1787C104.632 82.1787 106.645 80.1706 106.645 77.6934C106.645 75.2162 104.632 73.208 102.148 73.208C99.6645 73.208 97.6511 75.2162 97.6511 77.6934C97.6511 80.1706 99.6645 82.1787 102.148 82.1787Z" fill="#D8E1F4"/>
<path d="M86.0892 80C88.5727 80 90.5861 77.9918 90.5861 75.5146C90.5861 73.0375 88.5727 71.0293 86.0892 71.0293C83.6056 71.0293 81.5922 73.0375 81.5922 75.5146C81.5922 77.9918 83.6056 80 86.0892 80Z" fill="#D8E1F4"/>
<path d="M115.126 87.1738C117.609 87.1738 119.623 85.1657 119.623 82.6885C119.623 80.2113 117.609 78.2031 115.126 78.2031C112.642 78.2031 110.629 80.2113 110.629 82.6885C110.629 85.1657 112.642 87.1738 115.126 87.1738Z" fill="#D8E1F4"/>
<path d="M95.7241 91.531C97.8529 91.531 99.5786 89.8097 99.5786 87.6864C99.5786 85.5631 97.8529 83.8418 95.7241 83.8418C93.5953 83.8418 91.8696 85.5631 91.8696 87.6864C91.8696 89.8097 93.5953 91.531 95.7241 91.531Z" fill="#D8E1F4"/>
<path d="M108.702 96.4031C110.831 96.4031 112.556 94.6818 112.556 92.5585C112.556 90.4351 110.831 88.7139 108.702 88.7139C106.573 88.7139 104.847 90.4351 104.847 92.5585C104.847 94.6818 106.573 96.4031 108.702 96.4031Z" fill="#D8E1F4"/>
<path d="M79.7926 89.2243C81.9214 89.2243 83.6471 87.503 83.6471 85.3797C83.6471 83.2564 81.9214 81.5352 79.7926 81.5352C77.6638 81.5352 75.938 83.2564 75.938 85.3797C75.938 87.503 77.6638 89.2243 79.7926 89.2243Z" fill="#D8E1F4"/>
<path d="M88.6513 97.811C90.4253 97.811 91.8634 96.3766 91.8634 94.6071C91.8634 92.8377 90.4253 91.4033 88.6513 91.4033C86.8773 91.4033 85.4391 92.8377 85.4391 94.6071C85.4391 96.3766 86.8773 97.811 88.6513 97.811Z" fill="#D8E1F4"/>
<path d="M94.1762 106.655C95.7373 106.655 97.0028 105.393 97.0028 103.836C97.0028 102.279 95.7373 101.017 94.1762 101.017C92.6151 101.017 91.3495 102.279 91.3495 103.836C91.3495 105.393 92.6151 106.655 94.1762 106.655Z" fill="#D8E1F4"/>
<path d="M87.3697 108.451C88.647 108.451 89.6824 107.419 89.6824 106.145C89.6824 104.871 88.647 103.838 87.3697 103.838C86.0924 103.838 85.057 104.871 85.057 106.145C85.057 107.419 86.0924 108.451 87.3697 108.451Z" fill="#D8E1F4"/>
<path d="M81.3258 101.787C82.8869 101.787 84.1524 100.525 84.1524 98.9678C84.1524 97.4107 82.8869 96.1484 81.3258 96.1484C79.7647 96.1484 78.4991 97.4107 78.4991 98.9678C78.4991 100.525 79.7647 101.787 81.3258 101.787Z" fill="#D8E1F4"/>
<path d="M72.5923 95.6371C74.3663 95.6371 75.8044 94.2027 75.8044 92.4333C75.8044 90.6639 74.3663 89.2295 72.5923 89.2295C70.8183 89.2295 69.3802 90.6639 69.3802 92.4333C69.3802 94.2027 70.8183 95.6371 72.5923 95.6371Z" fill="#D8E1F4"/>
<path d="M72.465 71.5385C74.239 71.5385 75.6771 70.1041 75.6771 68.3347C75.6771 66.5653 74.239 65.1309 72.465 65.1309C70.691 65.1309 69.2529 66.5653 69.2529 68.3347C69.2529 70.1041 70.691 71.5385 72.465 71.5385Z" fill="#D8E1F4"/>
<path d="M73.8763 60.2628C75.4374 60.2628 76.703 59.0005 76.703 57.4434C76.703 55.8863 75.4374 54.624 73.8763 54.624C72.3152 54.624 71.0497 55.8863 71.0497 57.4434C71.0497 59.0005 72.3152 60.2628 73.8763 60.2628Z" fill="#D8E1F4"/>
<path d="M76.965 51.0383C78.2423 51.0383 79.2777 50.0056 79.2777 48.7316C79.2777 47.4576 78.2423 46.4248 76.965 46.4248C75.6877 46.4248 74.6523 47.4576 74.6523 48.7316C74.6523 50.0056 75.6877 51.0383 76.965 51.0383Z" fill="#D8E1F4"/>
<path d="M71.57 46.6807C73.1311 46.6807 74.3967 45.4184 74.3967 43.8614C74.3967 42.3043 73.1311 41.042 71.57 41.042C70.0089 41.042 68.7433 42.3043 68.7433 43.8614C68.7433 45.4184 70.0089 46.6807 71.57 46.6807Z" fill="#D8E1F4"/>
<path d="M101.502 102.684C103.276 102.684 104.714 101.25 104.714 99.4802C104.714 97.7108 103.276 96.2764 101.502 96.2764C99.7277 96.2764 98.2896 97.7108 98.2896 99.4802C98.2896 101.25 99.7277 102.684 101.502 102.684Z" fill="#D8E1F4"/>
<path d="M64.2392 42.9643C66.0132 42.9643 67.4513 41.5299 67.4513 39.7605C67.4513 37.991 66.0132 36.5566 64.2392 36.5566C62.4652 36.5566 61.0271 37.991 61.0271 39.7605C61.0271 41.5299 62.4652 42.9643 64.2392 42.9643Z" fill="#D8E1F4"/>
<path d="M66.4287 56.5473C68.2026 56.5473 69.6408 55.1129 69.6408 53.3435C69.6408 51.574 68.2026 50.1396 66.4287 50.1396C64.6547 50.1396 63.2166 51.574 63.2166 53.3435C63.2166 55.1129 64.6547 56.5473 66.4287 56.5473Z" fill="#D8E1F4"/>
<path d="M62.83 69.4929C64.9588 69.4929 66.6846 67.7716 66.6846 65.6483C66.6846 63.525 64.9588 61.8037 62.83 61.8037C60.7013 61.8037 58.9755 63.525 58.9755 65.6483C58.9755 67.7716 60.7013 69.4929 62.83 69.4929Z" fill="#D8E1F4"/>
<path d="M51.133 69.4893C53.6166 69.4893 55.63 67.4811 55.63 65.0039C55.63 62.5267 53.6166 60.5186 51.133 60.5186C48.6495 60.5186 46.6361 62.5267 46.6361 65.0039C46.6361 67.4811 48.6495 69.4893 51.133 69.4893Z" fill="#D8E1F4"/>
<path d="M37.5134 72.5667C40.3518 72.5667 42.6528 70.2716 42.6528 67.4406C42.6528 64.6095 40.3518 62.3145 37.5134 62.3145C34.675 62.3145 32.374 64.6095 32.374 67.4406C32.374 70.2716 34.675 72.5667 37.5134 72.5667Z" fill="#D8E1F4"/>
<path d="M22.6191 79.8706C25.9542 79.8706 28.6579 77.1739 28.6579 73.8474C28.6579 70.5209 25.9542 67.8242 22.6191 67.8242C19.284 67.8242 16.5804 70.5209 16.5804 73.8474C16.5804 77.1739 19.284 79.8706 22.6191 79.8706Z" fill="#D8E1F4"/>
<path d="M7.19511 92.1744C11.1689 92.1744 14.3902 88.9614 14.3902 84.9979C14.3902 81.0344 11.1689 77.8213 7.19511 77.8213C3.22136 77.8213 0 81.0344 0 84.9979C0 88.9614 3.22136 92.1744 7.19511 92.1744Z" fill="#D8E1F4"/>
<path d="M16.5708 64.8803C19.906 64.8803 22.6096 62.1837 22.6096 58.8572C22.6096 55.5307 19.906 52.834 16.5708 52.834C13.2357 52.834 10.5321 55.5307 10.5321 58.8572C10.5321 62.1837 13.2357 64.8803 16.5708 64.8803Z" fill="#D8E1F4"/>
<path d="M31.4756 57.5706C34.314 57.5706 36.615 55.2755 36.615 52.4445C36.615 49.6134 34.314 47.3184 31.4756 47.3184C28.6372 47.3184 26.3362 49.6134 26.3362 52.4445C26.3362 55.2755 28.6372 57.5706 31.4756 57.5706Z" fill="#D8E1F4"/>
<path d="M29.2966 43.9866C32.135 43.9866 34.436 41.6916 34.436 38.8605C34.436 36.0294 32.135 33.7344 29.2966 33.7344C26.4583 33.7344 24.1573 36.0294 24.1573 38.8605C24.1573 41.6916 26.4583 43.9866 29.2966 43.9866Z" fill="#D8E1F4"/>
<path d="M42.9178 40.915C45.4014 40.915 47.4147 38.9069 47.4147 36.4297C47.4147 33.9525 45.4014 31.9443 42.9178 31.9443C40.4342 31.9443 38.4208 33.9525 38.4208 36.4297C38.4208 38.9069 40.4342 40.915 42.9178 40.915Z" fill="#D8E1F4"/>
<path d="M54.6043 40.9148C56.7331 40.9148 58.4588 39.1935 58.4588 37.0702C58.4588 34.9469 56.7331 33.2256 54.6043 33.2256C52.4755 33.2256 50.7498 34.9469 50.7498 37.0702C50.7498 39.1935 52.4755 40.9148 54.6043 40.9148Z" fill="#D8E1F4"/>
<path d="M56.7937 54.4968C58.9225 54.4968 60.6483 52.7755 60.6483 50.6522C60.6483 48.5289 58.9225 46.8076 56.7937 46.8076C54.6649 46.8076 52.9392 48.5289 52.9392 50.6522C52.9392 52.7755 54.6649 54.4968 56.7937 54.4968Z" fill="#D8E1F4"/>
<path d="M45.0967 54.625C47.5803 54.625 49.5937 52.6168 49.5937 50.1396C49.5937 47.6625 47.5803 45.6543 45.0967 45.6543C42.6131 45.6543 40.5998 47.6625 40.5998 50.1396C40.5998 52.6168 42.6131 54.625 45.0967 54.625Z" fill="#D8E1F4"/>
<path d="M32.3804 88.7151C33.6577 88.7151 34.6931 87.6823 34.6931 86.4083C34.6931 85.1343 33.6577 84.1016 32.3804 84.1016C31.1031 84.1016 30.0677 85.1343 30.0677 86.4083C30.0677 87.6823 31.1031 88.7151 32.3804 88.7151Z" fill="#D8E1F4"/>
<path d="M41.6296 87.5626C43.1907 87.5626 44.4563 86.3003 44.4563 84.7432C44.4563 83.1861 43.1907 81.9238 41.6296 81.9238C40.0685 81.9238 38.803 83.1861 38.803 84.7432C38.803 86.3003 40.0685 87.5626 41.6296 87.5626Z" fill="#D8E1F4"/>
<path d="M51.7829 83.7182C53.5569 83.7182 54.995 82.2838 54.995 80.5144C54.995 78.7449 53.5569 77.3105 51.7829 77.3105C50.0089 77.3105 48.5708 78.7449 48.5708 80.5144C48.5708 82.2838 50.0089 83.7182 51.7829 83.7182Z" fill="#D8E1F4"/>
<path d="M54.2206 93.9695C56.3494 93.9695 58.0751 92.2482 58.0751 90.1249C58.0751 88.0016 56.3494 86.2803 54.2206 86.2803C52.0918 86.2803 50.3661 88.0016 50.3661 90.1249C50.3661 92.2482 52.0918 93.9695 54.2206 93.9695Z" fill="#D8E1F4"/>
<path d="M41.8877 96.4028C43.6617 96.4028 45.0998 94.9684 45.0998 93.1989C45.0998 91.4295 43.6617 89.9951 41.8877 89.9951C40.1137 89.9951 38.6756 91.4295 38.6756 93.1989C38.6756 94.9684 40.1137 96.4028 41.8877 96.4028Z" fill="#D8E1F4"/>
<path d="M30.9597 96.2774C32.5208 96.2774 33.7864 95.0151 33.7864 93.458C33.7864 91.9009 32.5208 90.6387 30.9597 90.6387C29.3986 90.6387 28.1331 91.9009 28.1331 93.458C28.1331 95.0151 29.3986 96.2774 30.9597 96.2774Z" fill="#D8E1F4"/>
<path d="M31.0904 105.119C32.8644 105.119 34.3025 103.684 34.3025 101.915C34.3025 100.145 32.8644 98.7109 31.0904 98.7109C29.3164 98.7109 27.8783 100.145 27.8783 101.915C27.8783 103.684 29.3164 105.119 31.0904 105.119Z" fill="#D8E1F4"/>
<path d="M44.1996 106.782C46.3284 106.782 48.0541 105.061 48.0541 102.937C48.0541 100.814 46.3284 99.0928 44.1996 99.0928C42.0708 99.0928 40.345 100.814 40.345 102.937C40.345 105.061 42.0708 106.782 44.1996 106.782Z" fill="#D8E1F4"/>
<path d="M59.4877 105.119C61.9713 105.119 63.9847 103.111 63.9847 100.634C63.9847 98.1566 61.9713 96.1484 59.4877 96.1484C57.0041 96.1484 54.9908 98.1566 54.9908 100.634C54.9908 103.111 57.0041 105.119 59.4877 105.119Z" fill="#D8E1F4"/>
<path d="M68.4833 116.264C71.3217 116.264 73.6226 113.969 73.6226 111.138C73.6226 108.307 71.3217 106.012 68.4833 106.012C65.6449 106.012 63.3439 108.307 63.3439 111.138C63.3439 113.969 65.6449 116.264 68.4833 116.264Z" fill="#D8E1F4"/>
<path d="M49.5925 117.805C52.0761 117.805 54.0895 115.797 54.0895 113.319C54.0895 110.842 52.0761 108.834 49.5925 108.834C47.1089 108.834 45.0956 110.842 45.0956 113.319C45.0956 115.797 47.1089 117.805 49.5925 117.805Z" fill="#D8E1F4"/>
<path d="M38.9316 126.52C41.4152 126.52 43.4285 124.511 43.4285 122.034C43.4285 119.557 41.4152 117.549 38.9316 117.549C36.448 117.549 34.4346 119.557 34.4346 122.034C34.4346 124.511 36.448 126.52 38.9316 126.52Z" fill="#D8E1F4"/>
<path d="M47.7907 137.796C50.6291 137.796 52.9301 135.501 52.9301 132.67C52.9301 129.839 50.6291 127.544 47.7907 127.544C44.9523 127.544 42.6514 129.839 42.6514 132.67C42.6514 135.501 44.9523 137.796 47.7907 137.796Z" fill="#D8E1F4"/>
<path d="M71.4343 139.846C74.7694 139.846 77.473 137.15 77.473 133.823C77.473 130.496 74.7694 127.8 71.4343 127.8C68.0991 127.8 65.3955 130.496 65.3955 133.823C65.3955 137.15 68.0991 139.846 71.4343 139.846Z" fill="#D8E1F4"/>
<path d="M58.4607 129.081C61.2991 129.081 63.6001 126.786 63.6001 123.955C63.6001 121.124 61.2991 118.829 58.4607 118.829C55.6223 118.829 53.3214 121.124 53.3214 123.955C53.3214 126.786 55.6223 129.081 58.4607 129.081Z" fill="#D8E1F4"/>
<path d="M81.3279 127.034C84.663 127.034 87.3667 124.337 87.3667 121.01C87.3667 117.684 84.663 114.987 81.3279 114.987C77.9928 114.987 75.2892 117.684 75.2892 121.01C75.2892 124.337 77.9928 127.034 81.3279 127.034Z" fill="#D8E1F4"/>
<path d="M33.5281 115.497C35.6569 115.497 37.3826 113.776 37.3826 111.652C37.3826 109.529 35.6569 107.808 33.5281 107.808C31.3993 107.808 29.6736 109.529 29.6736 111.652C29.6736 113.776 31.3993 115.497 33.5281 115.497Z" fill="#D8E1F4"/>
<path d="M185.569 41.5195H176.732V118.869H185.569V41.5195Z" fill="#D8E1F4"/>
<path d="M214.015 80.1327C214.015 58.459 232.21 40.1035 253.607 40.1035C275.128 40.1035 293.063 58.3223 293.063 80.1327C293.063 101.943 275.004 120.162 253.607 120.162C232.334 120.286 214.015 101.943 214.015 80.1327ZM284.226 80.1327C284.226 62.9454 270.263 48.3181 253.607 48.3181C236.951 48.3181 222.865 62.9454 222.865 80.1327C222.865 97.4567 236.951 112.071 253.607 112.071C270.263 112.071 284.226 97.4567 284.226 80.1327Z" fill="#D8E1F4"/>
<path d="M338.414 49.8584H312.412V41.5195H373.14V49.8584H347.126V118.869H338.29L338.414 49.8584Z" fill="#D8E1F4"/>
<path d="M419.508 52.2942L390.168 118.869H380.562L412.719 45.8816C413.874 43.1848 416.567 41.5195 419.384 41.5195C422.326 41.5195 424.895 43.1848 426.049 45.8816L458.207 118.869H448.601L419.508 52.2942Z" fill="#D8E1F4"/>
</svg>
